<?xml version="1.0" encoding="UTF-8"?>
<svg version="1.1" xmlns="http://www.w3.org/2000/svg" width="1774" height="1774">
<path d="M0 0 C-1.49101972 4.65616683 -4.21511825 7.94590159 -7.3125 11.625 C-12.11412089 17.47428737 -16.55583737 23.49324886 -20.8125 29.75 C-21.32659424 30.50490723 -21.84068848 31.25981445 -22.37036133 32.03759766 C-23.92926323 34.34835823 -25.46720974 36.67184681 -27 39 C-27.54180908 39.81057861 -28.08361816 40.62115723 -28.6418457 41.45629883 C-33.41266551 48.73958236 -37.48709344 56.31418309 -41.46166992 64.05004883 C-42.55468816 66.17233196 -43.66255846 68.28638552 -44.77148438 70.40039062 C-51.18492719 82.75230929 -56.60453664 95.43797286 -59.6875 109.0625 C-59.88754639 109.93334229 -60.08759277 110.80418457 -60.29370117 111.70141602 C-70.69253679 158.88450585 -62.46902427 203.61999559 -40 246 C-39.48759766 246.9907251 -39.48759766 246.9907251 -38.96484375 248.00146484 C-27.93363083 269.27522003 -13.98592086 289.33757628 1 308 C1.78375 308.98355469 2.5675 309.96710938 3.375 310.98046875 C5.55532369 313.67861931 7.76702003 316.34527676 10 319 C10.70987061 319.84522217 10.70987061 319.84522217 11.43408203 320.70751953 C16.53775356 326.77005286 21.61083301 332.75712489 27.3203125 338.26171875 C29.38553382 340.39898268 31.20668913 342.67853695 33.0625 345 C38.43662253 351.6675554 44.29233103 357.84580281 50.17382812 364.06494141 C53.10950302 367.17565788 56.02229244 370.3076178 58.9375 373.4375 C64.40873132 379.30232853 69.89167178 385.15611187 75.38110352 391.00390625 C78.50941827 394.33773667 81.63187185 397.67670775 84.7421875 401.02734375 C85.95298571 402.33085856 87.16392058 403.63424645 88.375 404.9375 C88.95789795 405.56495117 89.5407959 406.19240234 90.14135742 406.83886719 C93.29533446 410.21983671 96.50235101 413.52016658 99.8125 416.75 C103.74636389 420.62590641 107.1684822 424.80540373 110.6171875 429.11328125 C113.14695713 432.17803495 115.79211206 435.09376807 118.5 438 C121.95184568 441.70839776 125.26523492 445.4850757 128.4375 449.4375 C131.803493 453.6224108 135.33206986 457.58282099 139 461.5 C143.48957195 466.30107308 147.75628309 471.21702471 151.87109375 476.34765625 C153.26094276 478.07922961 154.66915992 479.79626293 156.09765625 481.49609375 C162.65304128 489.31258733 168.55252396 497.55952105 174.46582031 505.86621094 C175.7860648 507.70245168 177.12836105 509.51639791 178.4921875 511.3203125 C233.9691834 585.85001406 259.9217232 682.58728775 254.78125 834.90234375 C244.30634271 905.51161564 218.20670299 973.32488741 173.36767578 1029.28076172 C171.95827618 1031.05244897 170.5686522 1032.8381381 169.18359375 1034.62890625 C164.33720215 1040.88613443 159.40119469 1046.95750716 154.03125 1052.78125 C152.21041875 1054.77015799 150.47912594 1056.80682976 148.75 1058.875 C145.16634305 1062.99661931 141.15377424 1066.62655786 137.11474609 1070.28979492 C133.24435866 1073.81088733 129.53460787 1077.44897231 125.875 1081.1875 C101.7772044 1105.55057812 69.69469285 1124.30702469 38.95068359 1139.05712891 C37.01597599 1139.99227794 35.09569673 1140.95287493 33.17578125 1141.91796875 C-37.02246776 1176.69884259 -121.91488057 1184.46336985 -199 1175 C-197.58344126 1171.53693926 -196.05385174 1170.06859934 -192.90234375 1168.09765625 C-192.09522949 1167.58348145 -191.28811523 1167.06930664 -190.45654297 1166.53955078 C-189.64588379 1166.03149902 -188.83522461 1165.52344727 -188 1165 C-186.60288308 1164.08597137 -185.20824809 1163.16813513 -183.81640625 1162.24609375 C-183.12571045 1161.79097412 -182.43501465 1161.33585449 -181.72338867 1160.86694336 C-162.96152464 1148.4558357 -145.61194193 1135.16628243 -129 1120 C-127.12537871 1118.2912511 -125.25037045 1116.58292666 -123.375 1114.875 C-122.53710938 1114.10929687 -121.69921875 1113.34359375 -120.8359375 1112.5546875 C-118.65568853 1110.59066157 -116.45359062 1108.66820768 -114.23046875 1106.75390625 C-109.60489391 1102.71497905 -105.26720585 1098.41423997 -100.9375 1094.0625 C-100.17373047 1093.30259766 -99.40996094 1092.54269531 -98.62304688 1091.75976562 C-93.87467929 1087.00327423 -89.36415455 1082.10976848 -85 1077 C-84.11096954 1075.97891196 -83.22166794 1074.9580599 -82.33203125 1073.9375 C-75.15750337 1065.57277912 -68.50867197 1056.88979482 -62 1048 C-61.46052734 1047.26555664 -60.92105469 1046.53111328 -60.36523438 1045.77441406 C-45.16020015 1025.03946433 -31.28840534 1003.59750318 -19 981 C-18.55043945 980.17999512 -18.10087891 979.35999023 -17.63769531 978.51513672 C23.67169833 902.79057119 44.59136007 809.89574984 31 724 C30.63586891 721.58476339 30.27262275 719.16939323 29.91015625 716.75390625 C29.08494005 711.30017652 28.22089977 705.85401615 27.31958008 700.41235352 C27 698 27 698 27 694 C40.58170521 693.45090809 53.84746811 695.14392322 67.3125 696.75 C69.67300514 697.02502974 72.03360179 697.29927508 74.39428711 697.57275391 C81.26414849 698.37105827 88.13221505 699.1840541 95 700 C96.90558583 700.22569682 98.81118398 700.45128966 100.71679688 700.67675781 C101.59004105 700.78012451 102.46328522 700.88349121 103.36299133 700.98999023 C105.01628443 701.18560961 106.66959391 701.38109052 108.32292175 701.57641602 C111.96560664 702.00699106 115.60789233 702.4403129 119.24926758 702.88183594 C120.49861084 703.03168945 121.7479541 703.18154297 123.03515625 703.3359375 C124.1012915 703.46532715 125.16742676 703.5947168 126.26586914 703.72802734 C129.20545521 704.06598977 129.20545521 704.06598977 133 704 C125.25886651 695.65184541 117.46487661 687.38761487 109.36572266 679.38525391 C105.94513815 675.99028376 102.72313474 672.49613647 99.60546875 668.82421875 C97.26448284 666.1642664 94.73562913 663.7102626 92.1875 661.25 C90.38980121 659.40093839 88.73200579 657.5239637 87.0625 655.5625 C81.70457685 649.39346268 75.80809313 643.73995349 70 638 C57.21673696 625.36670821 57.21673696 625.36670821 51.9140625 619.13671875 C47.18993447 613.86304929 42.03420152 608.97514105 37 604 C23.92388343 591.07729038 23.92388343 591.07729038 18.6015625 584.82421875 C15.57704758 581.37922249 12.27119758 578.20853096 9 575 C5.07281639 571.1480498 1.20736097 567.30302286 -2.375 563.125 C-6.65531609 558.15556273 -11.33013636 553.60016418 -16 549 C-25.62955138 539.51417327 -25.62955138 539.51417327 -29.4375 535.0625 C-33.99083658 529.75205125 -39.02255668 524.90738547 -44 520 C-49.7109003 514.36948101 -55.36087393 508.74374619 -60.578125 502.64453125 C-62.29279027 500.6613607 -64.11447013 498.8205116 -66 497 C-69.25489978 493.80165253 -72.25133316 490.46857043 -75.1640625 486.95703125 C-76.7482763 485.26832675 -78.3330085 483.84598326 -80.11474609 482.37768555 C-81.06687988 481.59304932 -82.01901367 480.80841309 -83 480 C-83.13764267 480.57055618 -83.27528534 481.14111237 -83.417099 481.72895813 C-97.65957334 540.65710946 -114.50968131 598.60080409 -134 656 C-134.32101685 656.94842773 -134.64203369 657.89685547 -134.97277832 658.87402344 C-145.6643757 690.42138849 -158.37778953 721.1882076 -171 752 C-155.07613431 745.82944567 -139.2428995 739.54094292 -123.625 732.625 C-121.97699034 731.90035713 -120.32870961 731.17633048 -118.68017578 730.45288086 C-115.37770647 729.00327953 -112.07619753 727.55152689 -108.77539062 726.09814453 C-102.1363304 723.17777285 -95.48308315 720.29022894 -88.82733154 717.40814209 C-86.92563982 716.58443437 -85.02454063 715.75937204 -83.12353516 714.93408203 C-81.98706543 714.44149902 -80.8505957 713.94891602 -79.6796875 713.44140625 C-78.20604736 712.80247437 -78.20604736 712.80247437 -76.70263672 712.15063477 C-75.36483154 711.58107056 -75.36483154 711.58107056 -74 711 C-73.14035645 710.619646 -72.28071289 710.23929199 -71.39501953 709.84741211 C-69 709 -69 709 -65 709 C-55.69394305 770.66500237 -65.35871771 829.41653863 -102.125 880.875 C-115.90860039 899.35381089 -130.78346541 916.76990927 -149 931 C-149.97195313 931.78890625 -150.94390625 932.5778125 -151.9453125 933.390625 C-160.7973652 940.44564445 -170.20472963 946.34324729 -180 952 C-180.6801416 952.39574219 -181.3602832 952.79148437 -182.06103516 953.19921875 C-205.79471552 966.85118115 -232.15131067 975.33603142 -258.875 980.8125 C-259.82375 981.00755127 -260.7725 981.20260254 -261.75 981.40356445 C-277.50599186 984.44501826 -293.16951812 985.38056798 -309.1875 985.3125 C-310.53154404 985.30976578 -310.53154404 985.30976578 -311.90274048 985.30697632 C-325.78820944 985.25954979 -339.34218606 984.70332688 -353 982 C-353.90621094 981.82307617 -354.81242188 981.64615234 -355.74609375 981.46386719 C-362.2144487 980.16526195 -368.61459992 978.65709844 -375 977 C-375.83063965 976.78504883 -376.6612793 976.57009766 -377.51708984 976.34863281 C-408.52263135 968.12555758 -438.42513384 953.73387797 -463 933 C-464.07681007 932.10935947 -465.1536339 931.21873557 -466.23046875 930.328125 C-485.25420596 914.45806976 -501.01152464 896.76934138 -513 875 C-513.44085937 874.20577637 -513.88171875 873.41155273 -514.3359375 872.59326172 C-547.63101412 812.17695384 -548.20817137 737.6441483 -529.640625 672.35205078 C-512.12012541 613.33399998 -477.79026565 550.42561111 -429.7109375 510.4609375 C-427.92541819 508.93631599 -426.3164164 507.31509636 -424.6875 505.625 C-416.55409206 497.3811838 -404.91486906 486.42619956 -394 482 C-393.01 482 -392.02 482 -391 482 C-391.13575439 482.63687744 -391.27150879 483.27375488 -391.41137695 483.92993164 C-400.97196967 529.1758514 -406.01112738 578.14793534 -382 620 C-381.4225 621.01578125 -380.845 622.0315625 -380.25 623.078125 C-370.24135247 639.66653155 -354.99366486 652.4038762 -336.25 657.875 C-322.09117137 660.96588154 -308.49896965 659.35385401 -295.75 652.3125 C-282.24983025 643.46530138 -274.88773648 630.32881083 -271.47265625 614.74609375 C-266.22443348 584.25435318 -275.96915521 555.57795308 -284.46655273 526.57452393 C-300.89659865 470.43928912 -312.26294748 414.64600645 -312.1875 355.875 C-312.18656342 354.92646149 -312.18562683 353.97792297 -312.18466187 353.00064087 C-312.15456807 338.91422519 -311.96396906 324.97182846 -310 311 C-309.76603516 309.32019043 -309.76603516 309.32019043 -309.52734375 307.60644531 C-304.42065114 272.152759 -295.17616659 237.51595401 -280 205 C-279.58524414 204.11006348 -279.17048828 203.22012695 -278.74316406 202.30322266 C-266.10337239 175.49716334 -249.82820156 151.02475855 -230 129 C-229.50258301 128.44618652 -229.00516602 127.89237305 -228.49267578 127.32177734 C-219.18533258 117.00387134 -209.59454182 107.00996687 -199 98 C-197.56333984 96.72962891 -197.56333984 96.72962891 -196.09765625 95.43359375 C-181.27154319 82.3811841 -165.43778912 70.72692928 -148.52539062 60.52441406 C-146.81117179 59.48965165 -145.10166578 58.44704934 -143.39648438 57.39746094 C-130.74413369 49.62163265 -117.76837361 42.7088497 -104.4375 36.1875 C-103.73939209 35.8430484 -103.04128418 35.4985968 -102.32202148 35.14370728 C-83.13178281 25.71095385 -63.08001001 18.48556231 -42.84350586 11.64990234 C-39.77256766 10.6114973 -36.70553498 9.56209083 -33.63867188 8.51171875 C-7.97405991 -0.23241781 -7.97405991 -0.23241781 0 0 Z " fill="#489C51" transform="translate(1028,203)"/>
<path d="M0 0 C585.42 0 1170.84 0 1774 0 C1774 585.42 1774 1170.84 1774 1774 C1188.58 1774 603.16 1774 0 1774 C0 1188.58 0 603.16 0 0 Z M3 3 C3 586.44 3 1169.88 3 1771 C586.44 1771 1169.88 1771 1771 1771 C1771 1187.56 1771 604.12 1771 3 C1187.56 3 604.12 3 3 3 Z " fill="#353334" transform="translate(0,0)"/>
</svg>
