<svg width="90" height="90" viewBox="0 0 90 90" fill="none" xmlns="http://www.w3.org/2000/svg">
<g clip-path="url(#clip0_3282_19613)">
<path d="M45.4394 0C55.3271 5.80078 65.7202 10.5029 76.6626 13.9526C78.2666 14.458 79.8926 14.9194 81.5185 15.4028C82.771 15.7983 83.2104 16.3037 83.2104 17.6001C83.1885 25.2026 83.4741 32.8271 83.0566 40.4077C82.2217 55.5249 76.0693 68.269 64.9072 78.5303C60.2051 82.8589 54.9976 86.3745 49.043 88.8135C46.2305 89.978 43.5498 89.9561 40.7373 88.8135C33.7939 85.957 27.8613 81.6284 22.6099 76.333C16.7651 70.4443 12.4585 63.5449 9.71191 55.7227C7.51465 49.3945 6.5918 42.8247 6.5918 36.123C6.5918 30.1025 6.5918 24.082 6.5918 18.0615C6.5918 16.2817 6.94336 15.7764 8.63525 15.293C20.8301 11.9092 32.3877 6.9873 43.3301 0.593262C43.6816 0.395508 44.0332 0.197754 44.3848 0C44.7363 0 45.0879 0 45.4394 0ZM79.4311 18.8086C77.8931 18.3252 76.3989 17.8857 74.8828 17.4023C64.6875 14.1284 54.9536 9.82178 45.6592 4.50439C45.1538 4.21875 44.7583 4.15283 44.231 4.46045C33.8159 10.481 22.8076 15.1611 11.25 18.5229C10.5908 18.7207 10.3931 18.9624 10.3931 19.6436C10.415 25.1587 10.3931 30.6958 10.415 36.2109C10.437 41.5723 11.0522 46.8677 12.5903 52.0312C15.1172 60.6226 19.6216 68.0273 25.9937 74.2896C30.2124 78.4424 34.9145 81.9141 40.2759 84.4409C44.4287 86.4185 45.2637 86.3965 49.4604 84.5068C49.6362 84.4189 49.834 84.3311 50.0098 84.2212C59.8755 79.2334 67.5879 71.9385 72.9932 62.2925C76.8823 55.3491 79.0137 47.8564 79.2993 39.9243C79.541 33.1128 79.4312 26.3013 79.4531 19.4897C79.4312 19.314 79.4311 19.0723 79.4311 18.8086Z" fill="#10954F"/>
<path d="M39.0236 47.9001C39.2213 47.6144 39.3971 47.2849 39.6388 47.0432C45.5714 41.1105 51.5041 35.1779 57.4367 29.2453C59.3922 27.2897 61.6554 26.6086 64.2921 27.5314C68.0934 28.8718 69.5216 33.7497 67.0607 36.9357C66.797 37.2873 66.5114 37.6169 66.2038 37.9245C58.6452 45.4831 51.0646 53.0417 43.506 60.6222C41.1989 62.9294 38.2985 63.3688 35.7057 61.8307C35.2003 61.5451 34.7389 61.1496 34.3434 60.7541C30.7399 57.1725 27.1364 53.591 23.5548 49.9655C20.6984 47.0871 20.9181 43.0002 23.9943 40.5173C26.1256 38.8034 29.5094 38.7814 31.5749 40.6931C33.838 42.7585 35.9694 44.9777 38.1227 47.153C38.3424 47.3727 38.4523 47.7023 38.6281 47.988C38.7599 47.944 38.8918 47.9221 39.0236 47.9001ZM64.4459 33.7277C64.4679 32.1457 63.7648 31.2668 62.6442 31.0031C61.5675 30.7394 60.7985 31.2668 60.0954 31.9699C53.6354 38.4518 47.1535 44.9118 40.6935 51.3718C39.2873 52.778 38.4083 52.778 37.0021 51.3718C34.4972 48.8669 32.0143 46.362 29.4875 43.8791C28.4328 42.8464 26.9826 42.8024 26.0377 43.7253C25.0929 44.6481 25.1369 46.1203 26.1696 47.175C29.7951 50.8224 33.4425 54.4699 37.09 58.0954C38.2106 59.194 39.507 59.1721 40.6496 58.0734C41.5944 57.1506 42.5172 56.2057 43.4401 55.2829C50.0978 48.6252 56.7555 41.9894 63.3913 35.3098C63.9186 34.7824 64.2262 34.0573 64.4459 33.7277Z" fill="#10954F"/>
<path d="M14.063 26.5862C14.063 25.4437 14.041 24.3011 14.063 23.1805C14.085 22.0599 14.5244 21.4446 15.5791 21.0711C18.897 19.8846 22.2148 18.72 25.5327 17.5555C26.7192 17.138 27.7739 17.5555 28.1694 18.5442C28.5869 19.5989 28.1035 20.6536 26.8511 21.115C24.1484 22.1258 21.4458 23.0926 18.7212 24.0374C18.106 24.2571 17.8423 24.4988 17.8643 25.202C17.9302 26.784 17.8862 28.344 17.8862 29.9261C17.8862 31.2664 17.1611 32.1014 16.0186 32.1233C14.854 32.1453 14.085 31.3104 14.041 29.9261C14.041 28.8055 14.063 27.6849 14.063 26.5862Z" fill="#10954F"/>
<path d="M66.3799 60.6428C67.852 60.6208 68.7529 62.1589 67.9839 63.4993C67.5664 64.2244 67.061 64.9055 66.5556 65.5867C63.7212 69.4758 60.3374 72.8376 56.5581 75.8259C55.4814 76.6828 54.4048 76.6828 53.6797 75.8259C52.8886 74.9031 53.0424 73.7825 54.1631 72.8596C56.9316 70.6184 59.5683 68.2234 61.8095 65.4328C62.7763 64.2244 63.6772 62.9719 64.5781 61.7195C65.0395 61.1262 65.5449 60.6428 66.3799 60.6428Z" fill="#10954F"/>
<path d="M50.5815 75.8051C51.6142 75.8271 52.4711 76.706 52.4272 77.7167C52.4052 78.7275 51.4384 79.6283 50.4277 79.6503C49.373 79.6503 48.538 78.8154 48.56 77.7607C48.56 76.6401 49.4389 75.7831 50.5815 75.8051Z" fill="#10954F"/>
<path d="M33.6841 16.9833C33.7061 18.016 32.8052 18.9169 31.7285 18.9389C30.7617 18.9609 29.8389 18.038 29.8389 17.0273C29.8389 16.0605 30.7397 15.1376 31.7505 15.1156C32.7393 15.0937 33.6401 15.9726 33.6841 16.9833Z" fill="#10954F"/>
</g>
<defs>
<clipPath id="clip0_3282_19613">
<rect width="90" height="90" fill="white"/>
</clipPath>
</defs>
</svg>
