<svg width="72" height="90" viewBox="0 0 72 90" fill="none" xmlns="http://www.w3.org/2000/svg">
<path d="M59.625 89.9992C58.5234 89.2492 58.1719 88.5227 58.5234 87.6321C58.8281 86.8821 59.3906 86.4836 60.2109 86.4836C61.6641 86.4836 63.1406 86.5071 64.5938 86.4836C66.4219 86.4367 67.6875 85.1711 67.6875 83.3664C67.6875 74.6008 67.6875 65.8352 67.6875 57.0461C67.6875 56.9055 67.6641 56.7649 67.6641 56.4836C67.3359 56.4836 67.0312 56.4836 66.7266 56.4836C63.8203 56.4836 60.9375 56.4602 58.0312 56.4836C57.2344 56.4836 56.6016 56.2492 56.1797 55.5461C55.7578 54.8196 55.9453 54.1633 56.3672 53.5071C57.5156 51.7258 57.4922 49.6867 56.2969 48.093C55.1016 46.4992 53.4609 45.9133 51.4922 46.3117C49.6641 46.6633 48.2344 48.2805 47.9062 50.2727C47.7188 51.4211 48.0234 52.4758 48.6562 53.4367C49.125 54.1164 49.2656 54.8196 48.8672 55.5696C48.4453 56.343 47.7422 56.4836 46.9219 56.4836C44.1797 56.4602 41.4141 56.4836 38.6719 56.4836C38.3672 56.4836 38.0391 56.4836 37.6406 56.4836C37.6406 56.8821 37.6406 57.1867 37.6406 57.5149C37.6406 60.3508 37.6172 63.1867 37.6406 66.0227C37.6406 66.7961 37.3828 67.4055 36.6797 67.7571C36 68.1086 35.3203 68.0383 34.7109 67.5696C33.4688 66.6321 32.1562 66.0696 30.5625 66.468C28.6875 66.9367 27.2344 68.4133 26.9297 70.218C26.625 72.093 27.5156 74.0149 29.1562 74.9992C30.7969 76.0071 32.8125 75.8664 34.4062 74.6946C34.7344 74.4602 35.0859 74.1789 35.4609 74.0852C36.6094 73.8039 37.6172 74.6477 37.6172 75.8664C37.6406 79.0539 37.6172 82.2414 37.6172 85.4289C37.6172 85.7571 37.6172 86.0617 37.6172 86.5071C38.4609 86.5071 39.2578 86.5071 40.0781 86.5071C41.4141 86.5071 42.7734 86.5071 44.1094 86.5071C45.3984 86.5071 46.0312 86.8821 46.3125 87.7961C46.5469 88.6164 46.1953 89.2961 45.1641 89.9992C32.0625 89.9992 18.9609 89.9992 5.85938 89.9992C5.29688 89.7649 4.71094 89.5774 4.19531 89.2961C1.94531 88.1242 0.632812 86.2492 0.609375 83.6946C0.5625 74.0852 0.585938 64.4524 0.585938 54.843C0.585938 53.5305 1.24219 52.9446 2.64844 52.9446C8.4375 52.9446 14.2266 52.9446 20.0156 52.9446C27.7969 52.9446 35.5781 52.9446 43.3359 52.9446C43.6875 52.9446 44.0391 52.9446 44.4844 52.9446C43.8984 49.6164 44.6953 46.8039 47.2266 44.6008C48.9375 43.1242 50.9766 42.4446 53.2266 42.6321C57.3047 42.9602 61.6641 46.7336 60.5156 52.9211C60.9844 52.9211 61.4297 52.9211 61.8984 52.9211C64.2891 52.9211 66.7031 52.9211 69.0938 52.9211C70.5703 52.9211 71.1562 53.5305 71.1562 55.0071C71.1562 64.4289 71.1797 73.8274 71.1562 83.2492C71.1562 86.5774 69.3516 88.8742 66.1641 89.8117C66.0703 89.8352 65.9766 89.9289 65.8828 89.9758C63.8203 89.9992 61.7344 89.9992 59.625 89.9992ZM4.14844 56.5071C4.14844 56.8821 4.14844 57.1867 4.14844 57.468C4.14844 65.9758 4.14844 74.4836 4.14844 82.9914C4.14844 85.3117 5.34375 86.4836 7.66406 86.4836C16.1719 86.4836 24.6797 86.4836 33.1875 86.4836C33.4922 86.4836 33.7969 86.4836 34.125 86.4836C34.125 83.8821 34.125 81.3977 34.125 78.8664C30 79.7805 26.6484 78.6555 24.4688 74.9992C22.7812 72.1633 22.8984 69.2102 24.75 66.4914C27 63.1633 30.2344 62.1789 34.1016 63.093C34.1016 60.8899 34.1016 58.7102 34.1016 56.5071C24.1172 56.5071 14.2031 56.5071 4.14844 56.5071Z" fill="#10954F"/>
<path d="M51.8906 89.9991C51.3047 89.5304 50.6953 89.0616 50.6953 88.1944C50.7188 87.4444 51.2812 86.7179 52.0312 86.5538C52.8281 86.3663 53.4844 86.6241 53.9531 87.2804C54.3984 87.9132 54.3281 88.8038 53.8125 89.3897C53.6016 89.6241 53.3438 89.8116 53.1094 89.9991C52.7109 89.9991 52.3125 89.9991 51.8906 89.9991Z" fill="#10954F"/>
<path d="M28.3594 42.375C26.4375 45.5157 23.7422 47.1094 20.1797 46.7344C16.5938 46.3594 14.1094 44.3203 13.125 40.8282C11.9531 36.6563 13.6172 33.4922 17.2031 31.1485C15.2344 29.2032 13.3125 27.2813 11.3906 25.3594C10.0547 24.0235 10.0547 23.2735 11.3672 21.961C17.8828 15.4453 24.3985 8.92972 30.9141 2.43753C34.0078 -0.632779 37.8281 -0.656216 40.8985 2.4141C47.4375 8.95316 53.9766 15.4688 60.4922 22.0078C61.7578 23.2735 61.7344 24.0703 60.4688 25.3594C57.9844 27.8438 55.5 30.3047 53.0391 32.8125C52.4297 33.4453 51.7735 33.8907 50.8828 33.6563C50.0156 33.4219 49.711 32.7188 49.5235 31.8985C48.9375 29.461 46.9453 28.0547 44.461 28.2657C42.3516 28.4297 40.5235 30.2813 40.336 32.4844C40.125 34.8282 41.6016 36.8672 43.9688 37.4532C44.7891 37.6641 45.4922 37.9453 45.7266 38.8125C45.961 39.6797 45.5625 40.3125 44.9531 40.8985C42.4688 43.336 40.0313 45.8203 37.5703 48.2813C36.375 49.4766 35.5313 49.4766 34.3594 48.3047C32.6016 46.5469 30.8438 44.7891 29.086 43.0313C28.8516 42.7969 28.6406 42.6094 28.3594 42.375ZM14.6719 23.5782C17.0625 25.9688 19.3125 28.2422 21.586 30.4688C22.2188 31.0782 22.6406 31.7344 22.336 32.6485C22.0547 33.4922 21.375 33.7735 20.5313 33.9141C17.4375 34.3594 15.6563 37.1719 16.5703 39.9844C17.25 42.0938 19.1953 43.3828 21.4219 43.1953C23.6016 43.0313 25.2656 41.4844 25.6172 39.2813C25.7578 38.3907 25.9453 37.5235 26.9531 37.2188C27.9375 36.9141 28.5938 37.4766 29.25 38.1328C31.2656 40.1719 33.3047 42.1875 35.3203 44.2266C35.5078 44.4141 35.7422 44.6016 36 44.8594C36.8203 43.9922 37.5938 43.1953 38.3672 42.4219C39.1641 41.625 39.961 40.8282 40.7578 40.0313C35.8828 36.8203 35.7656 30.7969 38.8828 27.375C40.4766 25.6407 42.4922 24.7266 44.8594 24.7032C47.9766 24.6797 50.3203 26.1094 51.9844 28.5703C53.6719 26.8828 55.3125 25.2422 56.9766 23.5782C56.836 23.4375 56.6485 23.2266 56.4375 23.0157C50.4375 17.0157 44.4375 11.0157 38.461 5.0391C36.7031 3.28128 35.1563 3.28128 33.3985 5.01566C27.7735 10.6407 22.1485 16.2657 16.5235 21.8907C15.961 22.4063 15.3516 22.9453 14.6719 23.5782Z" fill="#10954F"/>
</svg>
